<svg width="461" height="517" viewBox="0 0 461 517" fill="none" xmlns="http://www.w3.org/2000/svg">
<g clip-path="url(#clip0_1_66)" filter="url(#filter0_d_1_66)">
<path d="M237.925 2.92971C235.874 1.5795 233.464 0.859131 231 0.859131C228.536 0.859131 226.127 1.5795 224.075 2.92971L36.575 126.559C34.3437 128.031 32.65 130.173 31.7442 132.669C30.8384 135.166 30.7685 137.885 31.5448 140.423C32.3211 142.962 33.9024 145.187 36.0552 146.769C38.208 148.351 40.8181 149.206 43.5 149.208H90.375V322.289H68.5C65.1848 322.289 62.0054 323.591 59.6612 325.91C57.317 328.228 56 331.373 56 334.652C56 337.931 57.317 341.075 59.6612 343.394C62.0054 345.712 65.1848 347.015 68.5 347.015H393.5C396.815 347.015 399.995 345.712 402.339 343.394C404.683 341.075 406 337.931 406 334.652C406 331.373 404.683 328.228 402.339 325.91C399.995 323.591 396.815 322.289 393.5 322.289H371.625V149.208H418.5C421.182 149.206 423.792 148.351 425.945 146.769C428.098 145.187 429.679 142.962 430.455 140.423C431.231 137.885 431.162 135.166 430.256 132.669C429.35 130.173 427.656 128.031 425.425 126.559L237.925 2.92971ZM340.375 149.208V322.289H309.125V149.208H340.375ZM277.875 149.208V322.289H246.625V149.208H277.875ZM215.375 149.208V322.289H184.125V149.208H215.375ZM152.875 149.208V322.289H121.625V149.208H152.875ZM231 99.7561C224.37 99.7561 218.011 97.1511 213.322 92.5141C208.634 87.8771 206 81.588 206 75.0303C206 68.4726 208.634 62.1835 213.322 57.5465C218.011 52.9095 224.37 50.3045 231 50.3045C237.63 50.3045 243.989 52.9095 248.678 57.5465C253.366 62.1835 256 68.4726 256 75.0303C256 81.588 253.366 87.8771 248.678 92.5141C243.989 97.1511 237.63 99.7561 231 99.7561ZM43.5 371.741C40.1848 371.741 37.0054 373.043 34.6612 375.362C32.317 377.68 31 380.825 31 384.103C31 387.382 32.317 390.527 34.6612 392.845C37.0054 395.164 40.1848 396.466 43.5 396.466H418.5C421.815 396.466 424.995 395.164 427.339 392.845C429.683 390.527 431 387.382 431 384.103C431 380.825 429.683 377.68 427.339 375.362C424.995 373.043 421.815 371.741 418.5 371.741H43.5Z" fill="#1B263B"/>
</g>
<path d="M50.253 439.066V460.126H45.123V447.496L40.413 460.126H36.273L31.533 447.466V460.126H26.403V439.066H32.463L38.373 453.646L44.223 439.066H50.253ZM66.692 449.326C67.912 449.586 68.892 450.196 69.632 451.156C70.372 452.096 70.742 453.176 70.742 454.396C70.742 456.156 70.122 457.556 68.882 458.596C67.662 459.616 65.952 460.126 63.752 460.126H53.942V439.066H63.422C65.562 439.066 67.232 439.556 68.432 440.536C69.652 441.516 70.262 442.846 70.262 444.526C70.262 445.766 69.932 446.796 69.272 447.616C68.632 448.436 67.772 449.006 66.692 449.326ZM59.072 447.586H62.432C63.272 447.586 63.912 447.406 64.352 447.046C64.812 446.666 65.042 446.116 65.042 445.396C65.042 444.676 64.812 444.126 64.352 443.746C63.912 443.366 63.272 443.176 62.432 443.176H59.072V447.586ZM62.852 455.986C63.712 455.986 64.372 455.796 64.832 455.416C65.312 455.016 65.552 454.446 65.552 453.706C65.552 452.966 65.302 452.386 64.802 451.966C64.322 451.546 63.652 451.336 62.792 451.336H59.072V455.986H62.852ZM92.8248 449.326C94.0448 449.586 95.0248 450.196 95.7648 451.156C96.5048 452.096 96.8748 453.176 96.8748 454.396C96.8748 456.156 96.2548 457.556 95.0148 458.596C93.7948 459.616 92.0848 460.126 89.8848 460.126H80.0748V439.066H89.5548C91.6948 439.066 93.3648 439.556 94.5648 440.536C95.7848 441.516 96.3948 442.846 96.3948 444.526C96.3948 445.766 96.0648 446.796 95.4048 447.616C94.7648 448.436 93.9048 449.006 92.8248 449.326ZM85.2048 447.586H88.5648C89.4048 447.586 90.0448 447.406 90.4848 447.046C90.9448 446.666 91.1748 446.116 91.1748 445.396C91.1748 444.676 90.9448 444.126 90.4848 443.746C90.0448 443.366 89.4048 443.176 88.5648 443.176H85.2048V447.586ZM88.9848 455.986C89.8448 455.986 90.5048 455.796 90.9648 455.416C91.4448 455.016 91.6848 454.446 91.6848 453.706C91.6848 452.966 91.4348 452.386 90.9348 451.966C90.4548 451.546 89.7848 451.336 88.9248 451.336H85.2048V455.986H88.9848ZM98.8302 451.726C98.8302 450.006 99.1502 448.496 99.7902 447.196C100.45 445.896 101.34 444.896 102.46 444.196C103.58 443.496 104.83 443.146 106.21 443.146C107.39 443.146 108.42 443.386 109.3 443.866C110.2 444.346 110.89 444.976 111.37 445.756V443.386H116.5V460.126H111.37V457.756C110.87 458.536 110.17 459.166 109.27 459.646C108.39 460.126 107.36 460.366 106.18 460.366C104.82 460.366 103.58 460.016 102.46 459.316C101.34 458.596 100.45 457.586 99.7902 456.286C99.1502 454.966 98.8302 453.446 98.8302 451.726ZM111.37 451.756C111.37 450.476 111.01 449.466 110.29 448.726C109.59 447.986 108.73 447.616 107.71 447.616C106.69 447.616 105.82 447.986 105.1 448.726C104.4 449.446 104.05 450.446 104.05 451.726C104.05 453.006 104.4 454.026 105.1 454.786C105.82 455.526 106.69 455.896 107.71 455.896C108.73 455.896 109.59 455.526 110.29 454.786C111.01 454.046 111.37 453.036 111.37 451.756ZM130.412 443.206C132.372 443.206 133.932 443.846 135.092 445.126C136.272 446.386 136.862 448.126 136.862 450.346V460.126H131.762V451.036C131.762 449.916 131.472 449.046 130.892 448.426C130.312 447.806 129.532 447.496 128.552 447.496C127.572 447.496 126.792 447.806 126.212 448.426C125.632 449.046 125.342 449.916 125.342 451.036V460.126H120.212V443.386H125.342V445.606C125.862 444.866 126.562 444.286 127.442 443.866C128.322 443.426 129.312 443.206 130.412 443.206ZM150.656 460.126L145.556 453.106V460.126H140.426V437.926H145.556V450.196L150.626 443.386H156.956L149.996 451.786L157.016 460.126H150.656ZM161.371 460.366C160.471 460.366 159.731 460.106 159.151 459.586C158.591 459.046 158.311 458.386 158.311 457.606C158.311 456.806 158.591 456.136 159.151 455.596C159.731 455.056 160.471 454.786 161.371 454.786C162.251 454.786 162.971 455.056 163.531 455.596C164.111 456.136 164.401 456.806 164.401 457.606C164.401 458.386 164.111 459.046 163.531 459.586C162.971 460.106 162.251 460.366 161.371 460.366ZM161.371 448.156C160.471 448.156 159.731 447.896 159.151 447.376C158.591 446.836 158.311 446.176 158.311 445.396C158.311 444.596 158.591 443.926 159.151 443.386C159.731 442.846 160.471 442.576 161.371 442.576C162.251 442.576 162.971 442.846 163.531 443.386C164.111 443.926 164.401 444.596 164.401 445.396C164.401 446.176 164.111 446.836 163.531 447.376C162.971 447.896 162.251 448.156 161.371 448.156ZM172.984 449.566C172.984 447.486 173.434 445.636 174.334 444.016C175.234 442.376 176.484 441.106 178.084 440.206C179.704 439.286 181.534 438.826 183.574 438.826C186.074 438.826 188.214 439.486 189.994 440.806C191.774 442.126 192.964 443.926 193.564 446.206H187.924C187.504 445.326 186.904 444.656 186.124 444.196C185.364 443.736 184.494 443.506 183.514 443.506C181.934 443.506 180.654 444.056 179.674 445.156C178.694 446.256 178.204 447.726 178.204 449.566C178.204 451.406 178.694 452.876 179.674 453.976C180.654 455.076 181.934 455.626 183.514 455.626C184.494 455.626 185.364 455.396 186.124 454.936C186.904 454.476 187.504 453.806 187.924 452.926H193.564C192.964 455.206 191.774 457.006 189.994 458.326C188.214 459.626 186.074 460.276 183.574 460.276C181.534 460.276 179.704 459.826 178.084 458.926C176.484 458.006 175.234 456.736 174.334 455.116C173.434 453.496 172.984 451.646 172.984 449.566ZM204.326 460.366C202.686 460.366 201.206 460.016 199.886 459.316C198.586 458.616 197.556 457.616 196.796 456.316C196.056 455.016 195.686 453.496 195.686 451.756C195.686 450.036 196.066 448.526 196.826 447.226C197.586 445.906 198.626 444.896 199.946 444.196C201.266 443.496 202.746 443.146 204.386 443.146C206.026 443.146 207.506 443.496 208.826 444.196C210.146 444.896 211.186 445.906 211.946 447.226C212.706 448.526 213.086 450.036 213.086 451.756C213.086 453.476 212.696 454.996 211.916 456.316C211.156 457.616 210.106 458.616 208.766 459.316C207.446 460.016 205.966 460.366 204.326 460.366ZM204.326 455.926C205.306 455.926 206.136 455.566 206.816 454.846C207.516 454.126 207.866 453.096 207.866 451.756C207.866 450.416 207.526 449.386 206.846 448.666C206.186 447.946 205.366 447.586 204.386 447.586C203.386 447.586 202.556 447.946 201.896 448.666C201.236 449.366 200.906 450.396 200.906 451.756C200.906 453.096 201.226 454.126 201.866 454.846C202.526 455.566 203.346 455.926 204.326 455.926ZM226.007 443.206C227.967 443.206 229.527 443.846 230.687 445.126C231.867 446.386 232.457 448.126 232.457 450.346V460.126H227.357V451.036C227.357 449.916 227.067 449.046 226.487 448.426C225.907 447.806 225.127 447.496 224.147 447.496C223.167 447.496 222.387 447.806 221.807 448.426C221.227 449.046 220.937 449.916 220.937 451.036V460.126H215.807V443.386H220.937V445.606C221.457 444.866 222.157 444.286 223.037 443.866C223.917 443.426 224.907 443.206 226.007 443.206ZM246.222 443.206C248.182 443.206 249.742 443.846 250.902 445.126C252.082 446.386 252.672 448.126 252.672 450.346V460.126H247.572V451.036C247.572 449.916 247.282 449.046 246.702 448.426C246.122 447.806 245.342 447.496 244.362 447.496C243.382 447.496 242.602 447.806 242.022 448.426C241.442 449.046 241.152 449.916 241.152 451.036V460.126H236.022V443.386H241.152V445.606C241.672 444.866 242.372 444.286 243.252 443.866C244.132 443.426 245.122 443.206 246.222 443.206ZM272.017 451.486C272.017 451.966 271.987 452.466 271.927 452.986H260.317C260.397 454.026 260.727 454.826 261.307 455.386C261.907 455.926 262.637 456.196 263.497 456.196C264.777 456.196 265.667 455.656 266.167 454.576H271.627C271.347 455.676 270.837 456.666 270.097 457.546C269.377 458.426 268.467 459.116 267.367 459.616C266.267 460.116 265.037 460.366 263.677 460.366C262.037 460.366 260.577 460.016 259.297 459.316C258.017 458.616 257.017 457.616 256.297 456.316C255.577 455.016 255.217 453.496 255.217 451.756C255.217 450.016 255.567 448.496 256.267 447.196C256.987 445.896 257.987 444.896 259.267 444.196C260.547 443.496 262.017 443.146 263.677 443.146C265.297 443.146 266.737 443.486 267.997 444.166C269.257 444.846 270.237 445.816 270.937 447.076C271.657 448.336 272.017 449.806 272.017 451.486ZM266.767 450.136C266.767 449.256 266.467 448.556 265.867 448.036C265.267 447.516 264.517 447.256 263.617 447.256C262.757 447.256 262.027 447.506 261.427 448.006C260.847 448.506 260.487 449.216 260.347 450.136H266.767ZM273.703 451.756C273.703 450.016 274.053 448.496 274.753 447.196C275.473 445.896 276.463 444.896 277.723 444.196C279.003 443.496 280.463 443.146 282.103 443.146C284.203 443.146 285.953 443.696 287.353 444.796C288.773 445.896 289.703 447.446 290.143 449.446H284.683C284.223 448.166 283.333 447.526 282.013 447.526C281.073 447.526 280.323 447.896 279.763 448.636C279.203 449.356 278.923 450.396 278.923 451.756C278.923 453.116 279.203 454.166 279.763 454.906C280.323 455.626 281.073 455.986 282.013 455.986C283.333 455.986 284.223 455.346 284.683 454.066H290.143C289.703 456.026 288.773 457.566 287.353 458.686C285.933 459.806 284.183 460.366 282.103 460.366C280.463 460.366 279.003 460.016 277.723 459.316C276.463 458.616 275.473 457.616 274.753 456.316C274.053 455.016 273.703 453.496 273.703 451.756ZM302.217 455.776V460.126H299.607C297.747 460.126 296.297 459.676 295.257 458.776C294.217 457.856 293.697 456.366 293.697 454.306V447.646H291.657V443.386H293.697V439.306H298.827V443.386H302.187V447.646H298.827V454.366C298.827 454.866 298.947 455.226 299.187 455.446C299.427 455.666 299.827 455.776 300.387 455.776H302.217ZM307.655 441.646C306.755 441.646 306.015 441.386 305.435 440.866C304.875 440.326 304.595 439.666 304.595 438.886C304.595 438.086 304.875 437.426 305.435 436.906C306.015 436.366 306.755 436.096 307.655 436.096C308.535 436.096 309.255 436.366 309.815 436.906C310.395 437.426 310.685 438.086 310.685 438.886C310.685 439.666 310.395 440.326 309.815 440.866C309.255 441.386 308.535 441.646 307.655 441.646ZM310.205 443.386V460.126H305.075V443.386H310.205ZM324.123 443.206C326.083 443.206 327.643 443.846 328.803 445.126C329.983 446.386 330.573 448.126 330.573 450.346V460.126H325.473V451.036C325.473 449.916 325.183 449.046 324.603 448.426C324.023 447.806 323.243 447.496 322.263 447.496C321.283 447.496 320.503 447.806 319.923 448.426C319.343 449.046 319.053 449.916 319.053 451.036V460.126H313.923V443.386H319.053V445.606C319.573 444.866 320.273 444.286 321.153 443.866C322.033 443.426 323.023 443.206 324.123 443.206ZM340.497 443.146C341.677 443.146 342.707 443.386 343.587 443.866C344.487 444.346 345.177 444.976 345.657 445.756V443.386H350.787V460.096C350.787 461.636 350.477 463.026 349.857 464.266C349.257 465.526 348.327 466.526 347.067 467.266C345.827 468.006 344.277 468.376 342.417 468.376C339.937 468.376 337.927 467.786 336.387 466.606C334.847 465.446 333.967 463.866 333.747 461.866H338.817C338.977 462.506 339.357 463.006 339.957 463.366C340.557 463.746 341.297 463.936 342.177 463.936C343.237 463.936 344.077 463.626 344.697 463.006C345.337 462.406 345.657 461.436 345.657 460.096V457.726C345.157 458.506 344.467 459.146 343.587 459.646C342.707 460.126 341.677 460.366 340.497 460.366C339.117 460.366 337.867 460.016 336.747 459.316C335.627 458.596 334.737 457.586 334.077 456.286C333.437 454.966 333.117 453.446 333.117 451.726C333.117 450.006 333.437 448.496 334.077 447.196C334.737 445.896 335.627 444.896 336.747 444.196C337.867 443.496 339.117 443.146 340.497 443.146ZM345.657 451.756C345.657 450.476 345.297 449.466 344.577 448.726C343.877 447.986 343.017 447.616 341.997 447.616C340.977 447.616 340.107 447.986 339.387 448.726C338.687 449.446 338.337 450.446 338.337 451.726C338.337 453.006 338.687 454.026 339.387 454.786C340.107 455.526 340.977 455.896 341.997 455.896C343.017 455.896 343.877 455.526 344.577 454.786C345.297 454.046 345.657 453.036 345.657 451.756ZM377.956 443.386L367.456 468.076H361.936L365.776 459.556L358.966 443.386H364.696L368.566 453.856L372.406 443.386H377.956ZM387.431 460.366C385.791 460.366 384.311 460.016 382.991 459.316C381.691 458.616 380.661 457.616 379.901 456.316C379.161 455.016 378.791 453.496 378.791 451.756C378.791 450.036 379.171 448.526 379.931 447.226C380.691 445.906 381.731 444.896 383.051 444.196C384.371 443.496 385.851 443.146 387.491 443.146C389.131 443.146 390.611 443.496 391.931 444.196C393.251 444.896 394.291 445.906 395.051 447.226C395.811 448.526 396.191 450.036 396.191 451.756C396.191 453.476 395.801 454.996 395.021 456.316C394.261 457.616 393.211 458.616 391.871 459.316C390.551 460.016 389.071 460.366 387.431 460.366ZM387.431 455.926C388.411 455.926 389.241 455.566 389.921 454.846C390.621 454.126 390.971 453.096 390.971 451.756C390.971 450.416 390.631 449.386 389.951 448.666C389.291 447.946 388.471 447.586 387.491 447.586C386.491 447.586 385.661 447.946 385.001 448.666C384.341 449.366 384.011 450.396 384.011 451.756C384.011 453.096 384.331 454.126 384.971 454.846C385.631 455.566 386.451 455.926 387.431 455.926ZM415.443 443.386V460.126H410.313V457.846C409.793 458.586 409.083 459.186 408.183 459.646C407.303 460.086 406.323 460.306 405.243 460.306C403.963 460.306 402.833 460.026 401.853 459.466C400.873 458.886 400.113 458.056 399.573 456.976C399.033 455.896 398.763 454.626 398.763 453.166V443.386H403.863V452.476C403.863 453.596 404.153 454.466 404.733 455.086C405.313 455.706 406.093 456.016 407.073 456.016C408.073 456.016 408.863 455.706 409.443 455.086C410.023 454.466 410.313 453.596 410.313 452.476V443.386H415.443ZM424.258 446.176C424.858 445.256 425.608 444.536 426.508 444.016C427.408 443.476 428.408 443.206 429.508 443.206V448.636H428.098C426.818 448.636 425.858 448.916 425.218 449.476C424.578 450.016 424.258 450.976 424.258 452.356V460.126H419.128V443.386H424.258V446.176ZM12.0686 492.646H9.30859V505.126H4.17859V492.646H2.31859V488.386H4.17859V487.906C4.17859 485.846 4.76859 484.286 5.94859 483.226C7.12859 482.146 8.85859 481.606 11.1386 481.606C11.5186 481.606 11.7986 481.616 11.9786 481.636V485.986C10.9986 485.926 10.3086 486.066 9.90859 486.406C9.50859 486.746 9.30859 487.356 9.30859 488.236V488.386H12.0686V492.646ZM31.0091 488.386V505.126H25.8791V502.846C25.3591 503.586 24.6491 504.186 23.7491 504.646C22.8691 505.086 21.8891 505.306 20.8091 505.306C19.5291 505.306 18.3991 505.026 17.4191 504.466C16.4391 503.886 15.6791 503.056 15.1391 501.976C14.5991 500.896 14.3291 499.626 14.3291 498.166V488.386H19.4291V497.476C19.4291 498.596 19.7191 499.466 20.2991 500.086C20.8791 500.706 21.6591 501.016 22.6391 501.016C23.6391 501.016 24.4291 500.706 25.0091 500.086C25.5891 499.466 25.8791 498.596 25.8791 497.476V488.386H31.0091ZM44.024 500.776V505.126H41.414C39.554 505.126 38.104 504.676 37.064 503.776C36.024 502.856 35.504 501.366 35.504 499.306V492.646H33.464V488.386H35.504V484.306H40.634V488.386H43.994V492.646H40.634V499.366C40.634 499.866 40.754 500.226 40.994 500.446C41.234 500.666 41.634 500.776 42.194 500.776H44.024ZM63.4115 488.386V505.126H58.2815V502.846C57.7615 503.586 57.0515 504.186 56.1515 504.646C55.2715 505.086 54.2915 505.306 53.2115 505.306C51.9315 505.306 50.8015 505.026 49.8215 504.466C48.8415 503.886 48.0815 503.056 47.5415 501.976C47.0015 500.896 46.7315 499.626 46.7315 498.166V488.386H51.8315V497.476C51.8315 498.596 52.1215 499.466 52.7015 500.086C53.2815 500.706 54.0615 501.016 55.0415 501.016C56.0415 501.016 56.8315 500.706 57.4115 500.086C57.9915 499.466 58.2815 498.596 58.2815 497.476V488.386H63.4115ZM72.2263 491.176C72.8263 490.256 73.5763 489.536 74.4763 489.016C75.3763 488.476 76.3763 488.206 77.4763 488.206V493.636H76.0663C74.7863 493.636 73.8263 493.916 73.1863 494.476C72.5463 495.016 72.2263 495.976 72.2263 497.356V505.126H67.0963V488.386H72.2263V491.176ZM95.7084 496.486C95.7084 496.966 95.6784 497.466 95.6184 497.986H84.0084C84.0884 499.026 84.4184 499.826 84.9984 500.386C85.5984 500.926 86.3284 501.196 87.1884 501.196C88.4684 501.196 89.3584 500.656 89.8584 499.576H95.3184C95.0384 500.676 94.5284 501.666 93.7884 502.546C93.0684 503.426 92.1584 504.116 91.0584 504.616C89.9584 505.116 88.7284 505.366 87.3684 505.366C85.7284 505.366 84.2684 505.016 82.9884 504.316C81.7084 503.616 80.7084 502.616 79.9884 501.316C79.2684 500.016 78.9084 498.496 78.9084 496.756C78.9084 495.016 79.2584 493.496 79.9584 492.196C80.6784 490.896 81.6784 489.896 82.9584 489.196C84.2384 488.496 85.7084 488.146 87.3684 488.146C88.9884 488.146 90.4284 488.486 91.6884 489.166C92.9484 489.846 93.9284 490.816 94.6284 492.076C95.3484 493.336 95.7084 494.806 95.7084 496.486ZM90.4584 495.136C90.4584 494.256 90.1584 493.556 89.5584 493.036C88.9584 492.516 88.2084 492.256 87.3084 492.256C86.4484 492.256 85.7184 492.506 85.1184 493.006C84.5384 493.506 84.1784 494.216 84.0384 495.136H90.4584ZM128.802 488.386L124.272 505.126H118.602L115.962 494.266L113.232 505.126H107.592L103.032 488.386H108.162L110.532 500.356L113.352 488.386H118.782L121.632 500.296L123.972 488.386H128.802ZM133.338 486.646C132.438 486.646 131.698 486.386 131.118 485.866C130.558 485.326 130.278 484.666 130.278 483.886C130.278 483.086 130.558 482.426 131.118 481.906C131.698 481.366 132.438 481.096 133.338 481.096C134.218 481.096 134.938 481.366 135.498 481.906C136.078 482.426 136.368 483.086 136.368 483.886C136.368 484.666 136.078 485.326 135.498 485.866C134.938 486.386 134.218 486.646 133.338 486.646ZM135.888 488.386V505.126H130.758V488.386H135.888ZM148.936 500.776V505.126H146.326C144.466 505.126 143.016 504.676 141.976 503.776C140.936 502.856 140.416 501.366 140.416 499.306V492.646H138.376V488.386H140.416V484.306H145.546V488.386H148.906V492.646H145.546V499.366C145.546 499.866 145.666 500.226 145.906 500.446C146.146 500.666 146.546 500.776 147.106 500.776H148.936ZM162.084 488.206C164.004 488.206 165.544 488.846 166.704 490.126C167.864 491.386 168.444 493.126 168.444 495.346V505.126H163.344V496.036C163.344 494.916 163.054 494.046 162.474 493.426C161.894 492.806 161.114 492.496 160.134 492.496C159.154 492.496 158.374 492.806 157.794 493.426C157.214 494.046 156.924 494.916 156.924 496.036V505.126H151.794V482.926H156.924V490.636C157.444 489.896 158.154 489.306 159.054 488.866C159.954 488.426 160.964 488.206 162.084 488.206ZM185.176 505.366C183.716 505.366 182.416 505.116 181.276 504.616C180.136 504.116 179.236 503.436 178.576 502.576C177.916 501.696 177.546 500.716 177.466 499.636H182.536C182.596 500.216 182.866 500.686 183.346 501.046C183.826 501.406 184.416 501.586 185.116 501.586C185.756 501.586 186.246 501.466 186.586 501.226C186.946 500.966 187.126 500.636 187.126 500.236C187.126 499.756 186.876 499.406 186.376 499.186C185.876 498.946 185.066 498.686 183.946 498.406C182.746 498.126 181.746 497.836 180.946 497.536C180.146 497.216 179.456 496.726 178.876 496.066C178.296 495.386 178.006 494.476 178.006 493.336C178.006 492.376 178.266 491.506 178.786 490.726C179.326 489.926 180.106 489.296 181.126 488.836C182.166 488.376 183.396 488.146 184.816 488.146C186.916 488.146 188.566 488.666 189.766 489.706C190.986 490.746 191.686 492.126 191.866 493.846H187.126C187.046 493.266 186.786 492.806 186.346 492.466C185.926 492.126 185.366 491.956 184.666 491.956C184.066 491.956 183.606 492.076 183.286 492.316C182.966 492.536 182.806 492.846 182.806 493.246C182.806 493.726 183.056 494.086 183.556 494.326C184.076 494.566 184.876 494.806 185.956 495.046C187.196 495.366 188.206 495.686 188.986 496.006C189.766 496.306 190.446 496.806 191.026 497.506C191.626 498.186 191.936 499.106 191.956 500.266C191.956 501.246 191.676 502.126 191.116 502.906C190.576 503.666 189.786 504.266 188.746 504.706C187.726 505.146 186.536 505.366 185.176 505.366ZM210.874 496.486C210.874 496.966 210.844 497.466 210.784 497.986H199.174C199.254 499.026 199.584 499.826 200.164 500.386C200.764 500.926 201.494 501.196 202.354 501.196C203.634 501.196 204.524 500.656 205.024 499.576H210.484C210.204 500.676 209.694 501.666 208.954 502.546C208.234 503.426 207.324 504.116 206.224 504.616C205.124 505.116 203.894 505.366 202.534 505.366C200.894 505.366 199.434 505.016 198.154 504.316C196.874 503.616 195.874 502.616 195.154 501.316C194.434 500.016 194.074 498.496 194.074 496.756C194.074 495.016 194.424 493.496 195.124 492.196C195.844 490.896 196.844 489.896 198.124 489.196C199.404 488.496 200.874 488.146 202.534 488.146C204.154 488.146 205.594 488.486 206.854 489.166C208.114 489.846 209.094 490.816 209.794 492.076C210.514 493.336 210.874 494.806 210.874 496.486ZM205.624 495.136C205.624 494.256 205.324 493.556 204.724 493.036C204.124 492.516 203.374 492.256 202.474 492.256C201.614 492.256 200.884 492.506 200.284 493.006C199.704 493.506 199.344 494.216 199.204 495.136H205.624ZM212.561 496.756C212.561 495.016 212.911 493.496 213.611 492.196C214.331 490.896 215.321 489.896 216.581 489.196C217.861 488.496 219.321 488.146 220.961 488.146C223.061 488.146 224.811 488.696 226.211 489.796C227.631 490.896 228.561 492.446 229.001 494.446H223.541C223.081 493.166 222.191 492.526 220.871 492.526C219.931 492.526 219.181 492.896 218.621 493.636C218.061 494.356 217.781 495.396 217.781 496.756C217.781 498.116 218.061 499.166 218.621 499.906C219.181 500.626 219.931 500.986 220.871 500.986C222.191 500.986 223.081 500.346 223.541 499.066H229.001C228.561 501.026 227.631 502.566 226.211 503.686C224.791 504.806 223.041 505.366 220.961 505.366C219.321 505.366 217.861 505.016 216.581 504.316C215.321 503.616 214.331 502.616 213.611 501.316C212.911 500.016 212.561 498.496 212.561 496.756ZM248.275 488.386V505.126H243.145V502.846C242.625 503.586 241.915 504.186 241.015 504.646C240.135 505.086 239.155 505.306 238.075 505.306C236.795 505.306 235.665 505.026 234.685 504.466C233.705 503.886 232.945 503.056 232.405 501.976C231.865 500.896 231.595 499.626 231.595 498.166V488.386H236.695V497.476C236.695 498.596 236.985 499.466 237.565 500.086C238.145 500.706 238.925 501.016 239.905 501.016C240.905 501.016 241.695 500.706 242.275 500.086C242.855 499.466 243.145 498.596 243.145 497.476V488.386H248.275ZM257.09 491.176C257.69 490.256 258.44 489.536 259.34 489.016C260.24 488.476 261.24 488.206 262.34 488.206V493.636H260.93C259.65 493.636 258.69 493.916 258.05 494.476C257.41 495.016 257.09 495.976 257.09 497.356V505.126H251.96V488.386H257.09V491.176ZM267.372 486.646C266.472 486.646 265.732 486.386 265.152 485.866C264.592 485.326 264.312 484.666 264.312 483.886C264.312 483.086 264.592 482.426 265.152 481.906C265.732 481.366 266.472 481.096 267.372 481.096C268.252 481.096 268.972 481.366 269.532 481.906C270.112 482.426 270.402 483.086 270.402 483.886C270.402 484.666 270.112 485.326 269.532 485.866C268.972 486.386 268.252 486.646 267.372 486.646ZM269.922 488.386V505.126H264.792V488.386H269.922ZM282.969 500.776V505.126H280.359C278.499 505.126 277.049 504.676 276.009 503.776C274.969 502.856 274.449 501.366 274.449 499.306V492.646H272.409V488.386H274.449V484.306H279.579V488.386H282.939V492.646H279.579V499.366C279.579 499.866 279.699 500.226 279.939 500.446C280.179 500.666 280.579 500.776 281.139 500.776H282.969ZM302.927 488.386L292.427 513.076H286.907L290.747 504.556L283.937 488.386H289.667L293.537 498.856L297.377 488.386H302.927ZM310.119 496.726C310.119 495.006 310.439 493.496 311.079 492.196C311.739 490.896 312.629 489.896 313.749 489.196C314.869 488.496 316.119 488.146 317.499 488.146C318.679 488.146 319.709 488.386 320.589 488.866C321.489 489.346 322.179 489.976 322.659 490.756V488.386H327.789V505.126H322.659V502.756C322.159 503.536 321.459 504.166 320.559 504.646C319.679 505.126 318.649 505.366 317.469 505.366C316.109 505.366 314.869 505.016 313.749 504.316C312.629 503.596 311.739 502.586 311.079 501.286C310.439 499.966 310.119 498.446 310.119 496.726ZM322.659 496.756C322.659 495.476 322.299 494.466 321.579 493.726C320.879 492.986 320.019 492.616 318.999 492.616C317.979 492.616 317.109 492.986 316.389 493.726C315.689 494.446 315.339 495.446 315.339 496.726C315.339 498.006 315.689 499.026 316.389 499.786C317.109 500.526 317.979 500.896 318.999 500.896C320.019 500.896 320.879 500.526 321.579 499.786C322.299 499.046 322.659 498.036 322.659 496.756ZM341.701 488.206C343.661 488.206 345.221 488.846 346.381 490.126C347.561 491.386 348.151 493.126 348.151 495.346V505.126H343.051V496.036C343.051 494.916 342.761 494.046 342.181 493.426C341.601 492.806 340.821 492.496 339.841 492.496C338.861 492.496 338.081 492.806 337.501 493.426C336.921 494.046 336.631 494.916 336.631 496.036V505.126H331.501V488.386H336.631V490.606C337.151 489.866 337.851 489.286 338.731 488.866C339.611 488.426 340.601 488.206 341.701 488.206ZM350.695 496.726C350.695 495.006 351.015 493.496 351.655 492.196C352.315 490.896 353.205 489.896 354.325 489.196C355.445 488.496 356.695 488.146 358.075 488.146C359.175 488.146 360.175 488.376 361.075 488.836C361.995 489.296 362.715 489.916 363.235 490.696V482.926H368.365V505.126H363.235V502.726C362.755 503.526 362.065 504.166 361.165 504.646C360.285 505.126 359.255 505.366 358.075 505.366C356.695 505.366 355.445 505.016 354.325 504.316C353.205 503.596 352.315 502.586 351.655 501.286C351.015 499.966 350.695 498.446 350.695 496.726ZM363.235 496.756C363.235 495.476 362.875 494.466 362.155 493.726C361.455 492.986 360.595 492.616 359.575 492.616C358.555 492.616 357.685 492.986 356.965 493.726C356.265 494.446 355.915 495.446 355.915 496.726C355.915 498.006 356.265 499.026 356.965 499.786C357.685 500.526 358.555 500.896 359.575 500.896C360.595 500.896 361.455 500.526 362.155 499.786C362.875 499.046 363.235 498.036 363.235 496.756ZM387.764 500.776V505.126H385.154C383.294 505.126 381.844 504.676 380.804 503.776C379.764 502.856 379.244 501.366 379.244 499.306V492.646H377.204V488.386H379.244V484.306H384.374V488.386H387.734V492.646H384.374V499.366C384.374 499.866 384.494 500.226 384.734 500.446C384.974 500.666 385.374 500.776 385.934 500.776H387.764ZM395.752 491.176C396.352 490.256 397.102 489.536 398.002 489.016C398.902 488.476 399.902 488.206 401.002 488.206V493.636H399.592C398.312 493.636 397.352 493.916 396.712 494.476C396.072 495.016 395.752 495.976 395.752 497.356V505.126H390.622V488.386H395.752V491.176ZM419.984 488.386V505.126H414.854V502.846C414.334 503.586 413.624 504.186 412.724 504.646C411.844 505.086 410.864 505.306 409.784 505.306C408.504 505.306 407.374 505.026 406.394 504.466C405.414 503.886 404.654 503.056 404.114 501.976C403.574 500.896 403.304 499.626 403.304 498.166V488.386H408.404V497.476C408.404 498.596 408.694 499.466 409.274 500.086C409.854 500.706 410.634 501.016 411.614 501.016C412.614 501.016 413.404 500.706 413.984 500.086C414.564 499.466 414.854 498.596 414.854 497.476V488.386H419.984ZM430.479 505.366C429.019 505.366 427.719 505.116 426.579 504.616C425.439 504.116 424.539 503.436 423.879 502.576C423.219 501.696 422.849 500.716 422.769 499.636H427.839C427.899 500.216 428.169 500.686 428.649 501.046C429.129 501.406 429.719 501.586 430.419 501.586C431.059 501.586 431.549 501.466 431.889 501.226C432.249 500.966 432.429 500.636 432.429 500.236C432.429 499.756 432.179 499.406 431.679 499.186C431.179 498.946 430.369 498.686 429.249 498.406C428.049 498.126 427.049 497.836 426.249 497.536C425.449 497.216 424.759 496.726 424.179 496.066C423.599 495.386 423.309 494.476 423.309 493.336C423.309 492.376 423.569 491.506 424.089 490.726C424.629 489.926 425.409 489.296 426.429 488.836C427.469 488.376 428.699 488.146 430.119 488.146C432.219 488.146 433.869 488.666 435.069 489.706C436.289 490.746 436.989 492.126 437.169 493.846H432.429C432.349 493.266 432.089 492.806 431.649 492.466C431.229 492.126 430.669 491.956 429.969 491.956C429.369 491.956 428.909 492.076 428.589 492.316C428.269 492.536 428.109 492.846 428.109 493.246C428.109 493.726 428.359 494.086 428.859 494.326C429.379 494.566 430.179 494.806 431.259 495.046C432.499 495.366 433.509 495.686 434.289 496.006C435.069 496.306 435.749 496.806 436.329 497.506C436.929 498.186 437.239 499.106 437.259 500.266C437.259 501.246 436.979 502.126 436.419 502.906C435.879 503.666 435.089 504.266 434.049 504.706C433.029 505.146 431.839 505.366 430.479 505.366ZM449.727 500.776V505.126H447.117C445.257 505.126 443.807 504.676 442.767 503.776C441.727 502.856 441.207 501.366 441.207 499.306V492.646H439.167V488.386H441.207V484.306H446.337V488.386H449.697V492.646H446.337V499.366C446.337 499.866 446.457 500.226 446.697 500.446C446.937 500.666 447.337 500.776 447.897 500.776H449.727ZM454.985 505.366C454.085 505.366 453.345 505.106 452.765 504.586C452.205 504.046 451.925 503.386 451.925 502.606C451.925 501.806 452.205 501.136 452.765 500.596C453.345 500.056 454.085 499.786 454.985 499.786C455.865 499.786 456.585 500.056 457.145 500.596C457.725 501.136 458.015 501.806 458.015 502.606C458.015 503.386 457.725 504.046 457.145 504.586C456.585 505.106 455.865 505.366 454.985 505.366Z" fill="#1B263B"/>
<defs>
<filter id="filter0_d_1_66" x="27" y="0.852783" width="408" height="403.614" filterUnits="userSpaceOnUse" color-interpolation-filters="sRGB">
<feFlood flood-opacity="0" result="BackgroundImageFix"/>
<feColorMatrix in="SourceAlpha" type="matrix" values="0 0 0 0 0 0 0 0 0 0 0 0 0 0 0 0 0 0 127 0" result="hardAlpha"/>
<feOffset dy="4"/>
<feGaussianBlur stdDeviation="2"/>
<feComposite in2="hardAlpha" operator="out"/>
<feColorMatrix type="matrix" values="0 0 0 0 0 0 0 0 0 0 0 0 0 0 0 0 0 0 0.25 0"/>
<feBlend mode="normal" in2="BackgroundImageFix" result="effect1_dropShadow_1_66"/>
<feBlend mode="normal" in="SourceGraphic" in2="effect1_dropShadow_1_66" result="shape"/>
</filter>
<clipPath id="clip0_1_66">
<rect width="400" height="395.614" fill="white" transform="translate(31 0.852783)"/>
</clipPath>
</defs>
</svg>
