<svg width="50" height="50" viewBox="0 0 50 50" fill="none" xmlns="http://www.w3.org/2000/svg">
<rect width="50" height="50" rx="8" fill="#1B263B"/>
<g clip-path="url(#clip0_388_2074)">
<path d="M34 13H16C15.2044 13 14.4413 13.3161 13.8787 13.8787C13.3161 14.4413 13 15.2044 13 16V34C13 34.7956 13.3161 35.5587 13.8787 36.1213C14.4413 36.6839 15.2044 37 16 37H34C34.7956 37 35.5587 36.6839 36.1213 36.1213C36.6839 35.5587 37 34.7956 37 34V16C37 15.2044 36.6839 14.4413 36.1213 13.8787C35.5587 13.3161 34.7956 13 34 13ZM14.5 18.7855C14.5 18.076 15.172 17.5 16 17.5H34C34.828 17.5 35.5 18.076 35.5 18.7855V34.2145C35.5 34.924 34.828 35.5 34 35.5H16C15.172 35.5 14.5 34.924 14.5 34.2145V18.7855Z" fill="white"/>
<path d="M22.75 23.5C23.1478 23.5 23.5294 23.342 23.8107 23.0607C24.092 22.7794 24.25 22.3978 24.25 22C24.25 21.6022 24.092 21.2206 23.8107 20.9393C23.5294 20.658 23.1478 20.5 22.75 20.5C22.3522 20.5 21.9706 20.658 21.6893 20.9393C21.408 21.2206 21.25 21.6022 21.25 22C21.25 22.3978 21.408 22.7794 21.6893 23.0607C21.9706 23.342 22.3522 23.5 22.75 23.5ZM27.25 23.5C27.6478 23.5 28.0294 23.342 28.3107 23.0607C28.592 22.7794 28.75 22.3978 28.75 22C28.75 21.6022 28.592 21.2206 28.3107 20.9393C28.0294 20.658 27.6478 20.5 27.25 20.5C26.8522 20.5 26.4706 20.658 26.1893 20.9393C25.908 21.2206 25.75 21.6022 25.75 22C25.75 22.3978 25.908 22.7794 26.1893 23.0607C26.4706 23.342 26.8522 23.5 27.25 23.5ZM31.75 23.5C32.1478 23.5 32.5294 23.342 32.8107 23.0607C33.092 22.7794 33.25 22.3978 33.25 22C33.25 21.6022 33.092 21.2206 32.8107 20.9393C32.5294 20.658 32.1478 20.5 31.75 20.5C31.3522 20.5 30.9706 20.658 30.6893 20.9393C30.408 21.2206 30.25 21.6022 30.25 22C30.25 22.3978 30.408 22.7794 30.6893 23.0607C30.9706 23.342 31.3522 23.5 31.75 23.5ZM18.25 28C18.6478 28 19.0294 27.842 19.3107 27.5607C19.592 27.2794 19.75 26.8978 19.75 26.5C19.75 26.1022 19.592 25.7206 19.3107 25.4393C19.0294 25.158 18.6478 25 18.25 25C17.8522 25 17.4706 25.158 17.1893 25.4393C16.908 25.7206 16.75 26.1022 16.75 26.5C16.75 26.8978 16.908 27.2794 17.1893 27.5607C17.4706 27.842 17.8522 28 18.25 28ZM22.75 28C23.1478 28 23.5294 27.842 23.8107 27.5607C24.092 27.2794 24.25 26.8978 24.25 26.5C24.25 26.1022 24.092 25.7206 23.8107 25.4393C23.5294 25.158 23.1478 25 22.75 25C22.3522 25 21.9706 25.158 21.6893 25.4393C21.408 25.7206 21.25 26.1022 21.25 26.5C21.25 26.8978 21.408 27.2794 21.6893 27.5607C21.9706 27.842 22.3522 28 22.75 28ZM27.25 28C27.6478 28 28.0294 27.842 28.3107 27.5607C28.592 27.2794 28.75 26.8978 28.75 26.5C28.75 26.1022 28.592 25.7206 28.3107 25.4393C28.0294 25.158 27.6478 25 27.25 25C26.8522 25 26.4706 25.158 26.1893 25.4393C25.908 25.7206 25.75 26.1022 25.75 26.5C25.75 26.8978 25.908 27.2794 26.1893 27.5607C26.4706 27.842 26.8522 28 27.25 28ZM31.75 28C32.1478 28 32.5294 27.842 32.8107 27.5607C33.092 27.2794 33.25 26.8978 33.25 26.5C33.25 26.1022 33.092 25.7206 32.8107 25.4393C32.5294 25.158 32.1478 25 31.75 25C31.3522 25 30.9706 25.158 30.6893 25.4393C30.408 25.7206 30.25 26.1022 30.25 26.5C30.25 26.8978 30.408 27.2794 30.6893 27.5607C30.9706 27.842 31.3522 28 31.75 28ZM18.25 32.5C18.6478 32.5 19.0294 32.342 19.3107 32.0607C19.592 31.7794 19.75 31.3978 19.75 31C19.75 30.6022 19.592 30.2206 19.3107 29.9393C19.0294 29.658 18.6478 29.5 18.25 29.5C17.8522 29.5 17.4706 29.658 17.1893 29.9393C16.908 30.2206 16.75 30.6022 16.75 31C16.75 31.3978 16.908 31.7794 17.1893 32.0607C17.4706 32.342 17.8522 32.5 18.25 32.5ZM22.75 32.5C23.1478 32.5 23.5294 32.342 23.8107 32.0607C24.092 31.7794 24.25 31.3978 24.25 31C24.25 30.6022 24.092 30.2206 23.8107 29.9393C23.5294 29.658 23.1478 29.5 22.75 29.5C22.3522 29.5 21.9706 29.658 21.6893 29.9393C21.408 30.2206 21.25 30.6022 21.25 31C21.25 31.3978 21.408 31.7794 21.6893 32.0607C21.9706 32.342 22.3522 32.5 22.75 32.5ZM27.25 32.5C27.6478 32.5 28.0294 32.342 28.3107 32.0607C28.592 31.7794 28.75 31.3978 28.75 31C28.75 30.6022 28.592 30.2206 28.3107 29.9393C28.0294 29.658 27.6478 29.5 27.25 29.5C26.8522 29.5 26.4706 29.658 26.1893 29.9393C25.908 30.2206 25.75 30.6022 25.75 31C25.75 31.3978 25.908 31.7794 26.1893 32.0607C26.4706 32.342 26.8522 32.5 27.25 32.5Z" fill="white"/>
</g>
<defs>
<clipPath id="clip0_388_2074">
<rect width="24" height="24" fill="white" transform="translate(13 13)"/>
</clipPath>
</defs>
</svg>
