<svg width="36" height="36" viewBox="0 0 36 36" fill="none" xmlns="http://www.w3.org/2000/svg">
<g clip-path="url(#clip0_116_1764)">
<path d="M20.9379 2.33756C20.0184 -0.779188 15.6016 -0.779188 14.6821 2.33756L14.4595 3.09449C14.3221 3.5611 14.082 3.99104 13.7569 4.35279C13.4317 4.71454 13.0297 4.99892 12.5803 5.18508C12.1309 5.37124 11.6456 5.45445 11.1598 5.42861C10.6741 5.40278 10.2003 5.26855 9.77324 5.03578L9.0831 4.65731C6.22682 3.10339 3.10339 6.22682 4.65954 9.08087L5.03578 9.77324C6.02869 11.5988 5.08698 13.8718 3.09449 14.4595L2.33756 14.6821C-0.779188 15.6016 -0.779188 20.0184 2.33756 20.9379L3.09449 21.1605C3.5611 21.2979 3.99104 21.538 4.35279 21.8631C4.71454 22.1883 4.99892 22.5903 5.18508 23.0397C5.37124 23.4891 5.45445 23.9744 5.42861 24.4602C5.40278 24.9459 5.26855 25.4197 5.03578 25.8468L4.65731 26.5369C3.10339 29.3932 6.22682 32.5166 9.08087 30.9605L9.77324 30.5842C10.2003 30.3514 10.6741 30.2172 11.1598 30.1914C11.6456 30.1656 12.1309 30.2488 12.5803 30.4349C13.0297 30.6211 13.4317 30.9055 13.7569 31.2672C14.082 31.629 14.3221 32.0589 14.4595 32.5255L14.6821 33.2824C15.6016 36.3992 20.0184 36.3992 20.9379 33.2824L21.1605 32.5255C21.2979 32.0589 21.538 31.629 21.8631 31.2672C22.1883 30.9055 22.5903 30.6211 23.0397 30.4349C23.4891 30.2488 23.9744 30.1656 24.4602 30.1914C24.9459 30.2172 25.4197 30.3514 25.8468 30.5842L26.5369 30.9627C29.3932 32.5166 32.5166 29.3932 30.9605 26.5391L30.5842 25.8468C30.3514 25.4197 30.2172 24.9459 30.1914 24.4602C30.1656 23.9744 30.2488 23.4891 30.4349 23.0397C30.6211 22.5903 30.9055 22.1883 31.2672 21.8631C31.629 21.538 32.0589 21.2979 32.5255 21.1605L33.2824 20.9379C36.3992 20.0184 36.3992 15.6016 33.2824 14.6821L32.5255 14.4595C32.0589 14.3221 31.629 14.082 31.2672 13.7569C30.9055 13.4317 30.6211 13.0297 30.4349 12.5803C30.2488 12.1309 30.1656 11.6456 30.1914 11.1598C30.2172 10.6741 30.3514 10.2003 30.5842 9.77324L30.9627 9.0831C32.5166 6.22682 29.3932 3.10339 26.5391 4.65954L25.8468 5.03578C25.4197 5.26855 24.9459 5.40278 24.4602 5.42861C23.9744 5.45445 23.4891 5.37124 23.0397 5.18508C22.5903 4.99892 22.1883 4.71454 21.8631 4.35279C21.538 3.99104 21.2979 3.5611 21.1605 3.09449L20.9379 2.33756V2.33756ZM17.81 24.3329C16.08 24.3329 14.4209 23.6457 13.1976 22.4224C11.9743 21.1991 11.2871 19.54 11.2871 17.81C11.2871 16.08 11.9743 14.4209 13.1976 13.1976C14.4209 11.9743 16.08 11.2871 17.81 11.2871C19.5394 11.2871 21.198 11.9741 22.4208 13.197C23.6437 14.4198 24.3307 16.0784 24.3307 17.8078C24.3307 19.5372 23.6437 21.1957 22.4208 22.4186C21.198 23.6415 19.5394 24.3285 17.81 24.3285V24.3329Z" fill="#505050"/>
</g>
<defs>
<clipPath id="clip0_116_1764">
<rect width="35.62" height="35.62" fill="white"/>
</clipPath>
</defs>
</svg>
