<svg width="35" height="35" viewBox="0 0 35 35" fill="none" xmlns="http://www.w3.org/2000/svg">
<g clip-path="url(#clip0_105_1780)">
<path d="M17.5 10.3993C16.5675 10.3993 15.6442 10.5829 14.7827 10.9398C13.9212 11.2966 13.1385 11.8196 12.4791 12.479C11.8198 13.1383 11.2967 13.9211 10.9399 14.7826C10.583 15.6441 10.3994 16.5674 10.3994 17.4999C10.3994 18.4323 10.583 19.3557 10.9399 20.2172C11.2967 21.0787 11.8198 21.8614 12.4791 22.5208C13.1385 23.1801 13.9212 23.7032 14.7827 24.06C15.6442 24.4168 16.5675 24.6005 17.5 24.6005C19.3832 24.6005 21.1893 23.8524 22.5209 22.5208C23.8525 21.1892 24.6006 19.3831 24.6006 17.4999C24.6006 15.6167 23.8525 13.8106 22.5209 12.479C21.1893 11.1474 19.3832 10.3993 17.5 10.3993ZM12.5869 17.4999C12.5869 16.1968 13.1045 14.9472 14.0259 14.0258C14.9473 13.1044 16.197 12.5868 17.5 12.5868C18.803 12.5868 20.0527 13.1044 20.9741 14.0258C21.8955 14.9472 22.4131 16.1968 22.4131 17.4999C22.4131 18.8029 21.8955 20.0526 20.9741 20.974C20.0527 21.8954 18.803 22.413 17.5 22.413C16.197 22.413 14.9473 21.8954 14.0259 20.974C13.1045 20.0526 12.5869 18.8029 12.5869 17.4999Z" fill="#212529"/>
<path d="M21.4288 2.9377C20.2759 -0.97793 14.7241 -0.97793 13.5713 2.9377L13.3656 3.63551C13.2851 3.90884 13.1445 4.16069 12.954 4.3726C12.7635 4.58452 12.528 4.75111 12.2648 4.86018C12.0015 4.96926 11.7172 5.01804 11.4327 5.00295C11.1481 4.98787 10.8706 4.9093 10.6203 4.77301L9.98157 4.42301C6.39407 2.47176 2.47188 6.39613 4.42532 9.98145L4.77313 10.6202C4.90942 10.8704 4.98799 11.148 5.00307 11.4325C5.01816 11.7171 4.96938 12.0014 4.86031 12.2646C4.75123 12.5279 4.58464 12.7634 4.37273 12.9539C4.16082 13.1443 3.90896 13.285 3.63563 13.3655L2.93782 13.5711C-0.977808 14.7239 -0.977808 20.2758 2.93782 21.4286L3.63563 21.6343C3.90896 21.7148 4.16082 21.8554 4.37273 22.0459C4.58464 22.2364 4.75123 22.4719 4.86031 22.7351C4.96938 22.9984 5.01816 23.2827 5.00307 23.5672C4.98799 23.8518 4.90942 24.1293 4.77313 24.3796L4.42313 25.0183C2.47188 28.6058 6.39407 32.5302 9.98157 30.5746L10.6203 30.2268C10.8706 30.0905 11.1481 30.0119 11.4327 29.9968C11.7172 29.9817 12.0015 30.0305 12.2648 30.1396C12.528 30.2487 12.7635 30.4153 12.954 30.6272C13.1445 30.8391 13.2851 31.0909 13.3656 31.3643L13.5713 32.0621C14.7241 35.9777 20.2759 35.9777 21.4288 32.0621L21.6344 31.3643C21.7149 31.0909 21.8555 30.8391 22.046 30.6272C22.2365 30.4153 22.472 30.2487 22.7353 30.1396C22.9985 30.0305 23.2828 29.9817 23.5674 29.9968C23.8519 30.0119 24.1295 30.0905 24.3797 30.2268L25.0184 30.5768C28.6059 32.5302 32.5303 28.6036 30.5747 25.0183L30.2269 24.3796C30.0906 24.1293 30.012 23.8518 29.9969 23.5672C29.9818 23.2827 30.0306 22.9984 30.1397 22.7351C30.2488 22.4719 30.4154 22.2364 30.6273 22.0459C30.8392 21.8554 31.091 21.7148 31.3644 21.6343L32.0622 21.4286C35.9778 20.2758 35.9778 14.7239 32.0622 13.5711L31.3644 13.3655C31.091 13.285 30.8392 13.1443 30.6273 12.9539C30.4154 12.7634 30.2488 12.5279 30.1397 12.2646C30.0306 12.0014 29.9818 11.7171 29.9969 11.4325C30.012 11.148 30.0906 10.8704 30.2269 10.6202L30.5769 9.98145C32.5303 6.39395 28.6038 2.47176 25.0184 4.4252L24.3797 4.77301C24.1295 4.9093 23.8519 4.98787 23.5674 5.00295C23.2828 5.01804 22.9985 4.96926 22.7353 4.86018C22.472 4.75111 22.2365 4.58452 22.046 4.3726C21.8555 4.16069 21.7149 3.90884 21.6344 3.63551L21.4288 2.9377ZM15.6691 3.55676C16.2072 1.7302 18.7928 1.7302 19.3309 3.55676L19.5366 4.25457C19.7094 4.84101 20.0113 5.38132 20.4202 5.83591C20.829 6.2905 21.3344 6.64783 21.8992 6.88171C22.4641 7.11559 23.0742 7.22009 23.6847 7.18755C24.2952 7.155 24.8907 6.98624 25.4275 6.69363L26.0641 6.34363C27.7353 5.43582 29.5641 7.26238 28.6541 8.93582L28.3063 9.57457C28.0141 10.1114 27.8457 10.7069 27.8135 11.3173C27.7814 11.9276 27.8861 12.5375 28.1202 13.1021C28.3543 13.6667 28.7117 14.1718 29.1663 14.5804C29.6209 14.989 30.1612 15.2906 30.7475 15.4633L31.4431 15.6689C33.2697 16.2071 33.2697 18.7927 31.4431 19.3308L30.7453 19.5364C30.1589 19.7093 29.6186 20.0112 29.164 20.42C28.7094 20.8289 28.3521 21.3342 28.1182 21.8991C27.8843 22.464 27.7798 23.074 27.8123 23.6846C27.8449 24.2951 28.0136 24.8906 28.3063 25.4274L28.6563 26.0639C29.5641 27.7352 27.7375 29.5639 26.0641 28.6539L25.4275 28.3061C24.8905 28.0136 24.2949 27.8449 23.6843 27.8125C23.0736 27.7801 22.4635 27.8847 21.8986 28.1189C21.3337 28.353 20.8283 28.7105 20.4196 29.1654C20.0109 29.6202 19.7092 30.1608 19.5366 30.7474L19.3309 31.443C18.7928 33.2696 16.2072 33.2696 15.6691 31.443L15.4634 30.7452C15.2905 30.1591 14.9887 29.619 14.58 29.1647C14.1713 28.7103 13.6662 28.3531 13.1016 28.1193C12.537 27.8854 11.9272 27.7808 11.317 27.8132C10.7067 27.8455 10.1114 28.0139 9.57469 28.3061L8.93594 28.6561C7.26469 29.5639 5.43594 27.7374 6.34594 26.0639L6.69375 25.4274C6.98677 24.8905 7.15587 24.2948 7.18863 23.684C7.22138 23.0732 7.11698 22.4629 6.88307 21.8977C6.64916 21.3326 6.29168 20.8269 5.83686 20.418C5.38205 20.009 4.84143 19.707 4.25469 19.5343L3.55688 19.3286C1.73032 18.7905 1.73032 16.2049 3.55688 15.6668L4.25469 15.4611C4.84052 15.2881 5.38025 14.9863 5.83438 14.5778C6.28851 14.1693 6.64555 13.6644 6.87937 13.1001C7.11319 12.5358 7.21788 11.9263 7.18576 11.3163C7.15364 10.7063 6.98554 10.1112 6.69375 9.57457L6.34375 8.93582C5.43594 7.26457 7.2625 5.43582 8.93594 6.34582L9.57469 6.69363C10.1114 6.98583 10.7067 7.15426 11.317 7.18659C11.9272 7.21892 12.537 7.11433 13.1016 6.88048C13.6662 6.64663 14.1713 6.28944 14.58 5.83508C14.9887 5.38073 15.2905 4.8407 15.4634 4.25457L15.6691 3.55676Z" fill="#212529"/>
</g>
<defs>
<clipPath id="clip0_105_1780">
<rect width="35" height="35" fill="white"/>
</clipPath>
</defs>
</svg>
