<svg width="50" height="50" viewBox="0 0 50 50" fill="none" xmlns="http://www.w3.org/2000/svg">
<rect width="50" height="50" rx="8" fill="#1B263B"/>
<path d="M28 26.575C28.9946 26.575 29.9484 26.1799 30.6516 25.4767C31.3549 24.7734 31.75 23.8196 31.75 22.825C31.75 21.8304 31.3549 20.8766 30.6516 20.1733C29.9484 19.4701 28.9946 19.075 28 19.075C27.0054 19.075 26.0516 19.4701 25.3483 20.1733C24.6451 20.8766 24.25 21.8304 24.25 22.825C24.25 23.8196 24.6451 24.7734 25.3483 25.4767C26.0516 26.1799 27.0054 26.575 28 26.575Z" fill="white"/>
<path d="M16 14.5C15.2044 14.5 14.4413 14.8161 13.8787 15.3787C13.3161 15.9413 13 16.7044 13 17.5V31C13 31.7956 13.3161 32.5587 13.8787 33.1213C14.4413 33.6839 15.2044 34 16 34H34C34.7956 34 35.5587 33.6839 36.1213 33.1213C36.6839 32.5587 37 31.7956 37 31V17.5C37 16.7044 36.6839 15.9413 36.1213 15.3787C35.5587 14.8161 34.7956 14.5 34 14.5H16ZM14.5 17.5C14.5 17.1022 14.658 16.7206 14.9393 16.4393C15.2206 16.158 15.6022 16 16 16H19V19H14.5V17.5ZM20.5 32.5V16H34C34.3978 16 34.7794 16.158 35.0607 16.4393C35.342 16.7206 35.5 17.1022 35.5 17.5V31C35.5 31.4275 35.32 31.8145 35.035 32.0875C34.225 30.241 32.233 28 28 28C23.4445 28 21.4825 30.595 20.803 32.5H20.5ZM14.5 29.5H19V32.5H16C15.6022 32.5 15.2206 32.342 14.9393 32.0607C14.658 31.7794 14.5 31.3978 14.5 31V29.5ZM19 28H14.5V25H19V28ZM19 23.5H14.5V20.5H19V23.5Z" fill="white"/>
</svg>
