<svg width="35" height="35" viewBox="0 0 35 35" fill="none" xmlns="http://www.w3.org/2000/svg">
<path d="M0 8.75C0 7.58968 0.460936 6.47688 1.28141 5.65641C2.10188 4.83594 3.21468 4.375 4.375 4.375H30.625C31.7853 4.375 32.8981 4.83594 33.7186 5.65641C34.5391 6.47688 35 7.58968 35 8.75V10.9375H0V8.75ZM0 15.3125V26.25C0 27.4103 0.460936 28.5231 1.28141 29.3436C2.10188 30.1641 3.21468 30.625 4.375 30.625H30.625C31.7853 30.625 32.8981 30.1641 33.7186 29.3436C34.5391 28.5231 35 27.4103 35 26.25V15.3125H0ZM6.5625 19.6875H8.75C9.33016 19.6875 9.88656 19.918 10.2968 20.3282C10.707 20.7384 10.9375 21.2948 10.9375 21.875V24.0625C10.9375 24.6427 10.707 25.1991 10.2968 25.6093C9.88656 26.0195 9.33016 26.25 8.75 26.25H6.5625C5.98234 26.25 5.42594 26.0195 5.0157 25.6093C4.60547 25.1991 4.375 24.6427 4.375 24.0625V21.875C4.375 21.2948 4.60547 20.7384 5.0157 20.3282C5.42594 19.918 5.98234 19.6875 6.5625 19.6875V19.6875Z" fill="#505050"/>
</svg>
