<svg width="50" height="50" viewBox="0 0 50 50" fill="none" xmlns="http://www.w3.org/2000/svg">
<rect width="50" height="50" rx="8" fill="#212529"/>
<g clip-path="url(#clip0_479_2085)">
<path d="M16 16H34C34.2652 16 34.5196 16.1054 34.7071 16.2929C34.8946 16.4804 35 16.7348 35 17V33C35 33.2652 34.8946 33.5196 34.7071 33.7071C34.5196 33.8946 34.2652 34 34 34H16C15.7348 34 15.4804 33.8946 15.2929 33.7071C15.1054 33.5196 15 33.2652 15 33V17C15 16.7348 15.1054 16.4804 15.2929 16.2929C15.4804 16.1054 15.7348 16 16 16ZM33 20.238L25.072 27.338L17 20.216V32H33V20.238ZM17.511 18L25.061 24.662L32.502 18H17.511Z" fill="white"/>
</g>
<defs>
<clipPath id="clip0_479_2085">
<rect width="24" height="24" fill="white" transform="translate(13 13)"/>
</clipPath>
</defs>
</svg>
