<svg width="36" height="36" viewBox="0 0 36 36" fill="none" xmlns="http://www.w3.org/2000/svg">
<path d="M6.67876 31.1661C6.67876 31.1661 4.45251 31.1661 4.45251 28.9399C4.45251 26.7138 6.67876 20.0354 17.81 20.0354C28.9413 20.0354 31.1675 26.7138 31.1675 28.9399C31.1675 31.1661 28.9413 31.1661 28.9413 31.1661H6.67876ZM17.81 17.8092C19.5813 17.8092 21.2801 17.1056 22.5326 15.8532C23.7851 14.6007 24.4888 12.902 24.4888 11.1308C24.4888 9.35959 23.7851 7.6609 22.5326 6.40846C21.2801 5.15601 19.5813 4.45239 17.81 4.45239C16.0387 4.45239 14.3399 5.15601 13.0874 6.40846C11.8349 7.6609 11.1313 9.35959 11.1313 11.1308C11.1313 12.902 11.8349 14.6007 13.0874 15.8532C14.3399 17.1056 16.0387 17.8092 17.81 17.8092Z" fill="#505050"/>
</svg>
