<svg width="31" height="32" viewBox="0 0 31 32" fill="none" xmlns="http://www.w3.org/2000/svg">
<path d="M7.75 21.562C8.03675 24.896 10.6814 27.262 14.7076 27.568V30H16.7284V27.568C21.1265 27.21 23.8545 24.692 23.8545 20.968C23.8545 17.788 22.0197 15.948 18.1272 14.912L16.7284 14.538V6.934C18.9022 7.154 20.3689 8.362 20.739 10.166H23.5871C23.2655 6.966 20.6034 4.67 16.7284 4.416V2H14.7076V4.466C10.9507 4.926 8.37194 7.41 8.37194 10.778C8.37194 13.686 10.2436 15.744 13.5276 16.612L14.7095 16.936V24.998C12.4833 24.658 10.9507 23.398 10.5807 21.562H7.75V21.562ZM14.3201 13.89C12.2992 13.364 11.2201 12.24 11.2201 10.658C11.2201 8.77 12.5841 7.376 14.7076 7.002V13.992L14.3201 13.892V13.89ZM17.4026 17.634C19.8962 18.28 20.9909 19.352 20.9909 21.172C20.9909 23.366 19.3905 24.828 16.7284 25.05V17.46L17.4026 17.632V17.634Z" fill="#212529"/>
</svg>
