<svg width="36" height="36" viewBox="0 0 36 36" fill="none" xmlns="http://www.w3.org/2000/svg">
<g clip-path="url(#clip0_124_1824)">
<path d="M0 11.1313C0.000543553 13.7076 0.894317 16.2039 2.52904 18.195C4.16376 20.1862 6.4383 21.5489 8.96511 22.0511C9.10902 20.4561 9.51835 18.8963 10.1762 17.4361C8.22599 16.7771 6.97261 15.2811 6.67875 13.1572H5.56562V12.2088H6.60306V11.2427C6.60306 11.1402 6.60306 11.0356 6.61196 10.9421H5.56562V9.9915H6.70324C7.20414 7.21314 9.37919 5.56571 12.6473 5.56571C13.3508 5.56571 13.9608 5.63473 14.4706 5.75494V7.38679C13.8752 7.25431 13.2661 7.19303 12.6562 7.20423C10.6103 7.20423 9.23226 8.24166 8.79591 9.9915H13.0636V10.9421H8.65566C8.64898 11.0445 8.64898 11.1581 8.64898 11.2694V12.2088H13.0636V13.1595H8.74916C9.01186 14.4997 9.79105 15.4525 10.9865 15.8955C12.1588 13.9541 13.7708 12.3154 15.6928 11.1116C17.6147 9.90781 19.7927 9.17256 22.051 8.9652C21.505 6.26144 19.975 3.85654 17.7573 2.21635C15.5396 0.576152 12.7921 -0.182603 10.047 0.0870585C7.30186 0.35672 4.75452 1.63561 2.89838 3.67599C1.04225 5.71637 0.00943256 8.37302 0 11.1313H0ZM35.62 23.3757C35.62 26.6231 34.33 29.7375 32.0337 32.0338C29.7374 34.3301 26.623 35.6201 23.3756 35.6201C20.1282 35.6201 17.0138 34.3301 14.7175 32.0338C12.4213 29.7375 11.1312 26.6231 11.1312 23.3757C11.1312 20.1283 12.4213 17.0139 14.7175 14.7176C17.0138 12.4214 20.1282 11.1313 23.3756 11.1313C26.623 11.1313 29.7374 12.4214 32.0337 14.7176C34.33 17.0139 35.62 20.1283 35.62 23.3757ZM18.3666 26.3188C18.5202 28.1777 20.0273 29.6248 22.7389 29.7962V31.1676H23.9411V29.7873C26.7439 29.5959 28.3847 28.1399 28.3847 26.025C28.3847 24.0992 27.1313 23.1086 24.8895 22.5965L23.9411 22.3739V18.6427C25.1433 18.7763 25.9091 19.4152 26.0917 20.3013H28.2021C28.0463 18.5114 26.4679 17.111 23.9411 16.9574V15.5838H22.7389V16.9841C20.3435 17.2135 18.7139 18.6138 18.7139 20.5951C18.7139 22.3472 19.9249 23.4625 21.9419 23.9189L22.7389 24.1082V28.0709C21.5056 27.8928 20.6908 27.2338 20.506 26.3188H18.3666ZM22.73 22.1001C21.5456 21.8329 20.9045 21.2897 20.9045 20.4705C20.9045 19.5577 21.5968 18.8698 22.7389 18.6694V22.0978H22.7278L22.73 22.1001ZM24.1147 24.4243C25.5507 24.7471 26.2141 25.2703 26.2141 26.1964C26.2141 27.2516 25.3904 27.9774 23.9433 28.1109V24.3842L24.1147 24.4243Z" fill="#505050"/>
</g>
<defs>
<clipPath id="clip0_124_1824">
<rect width="35.62" height="35.62" fill="white"/>
</clipPath>
</defs>
</svg>
