<svg width="203" height="57" viewBox="0 0 203 57" fill="none" xmlns="http://www.w3.org/2000/svg">
<path d="M93.624 24.008V41H88.32V32.528L85.704 41H81.144L78.528 32.528V41H73.2V24.008H79.728L83.472 34.208L87.12 24.008H93.624ZM112.348 24.008L106.252 35.84V41H100.924V35.84L94.8281 24.008H100.924L103.636 30.032L106.348 24.008H112.348ZM129.014 32.288C130.038 32.528 130.83 33.024 131.39 33.776C131.966 34.512 132.254 35.368 132.254 36.344C132.254 37.832 131.758 38.984 130.766 39.8C129.79 40.6 128.382 41 126.542 41H117.638V24.008H126.302C128.03 24.008 129.39 24.384 130.382 25.136C131.374 25.888 131.87 26.984 131.87 28.424C131.87 29.416 131.606 30.256 131.078 30.944C130.566 31.616 129.878 32.064 129.014 32.288ZM122.966 30.632H125.03C125.51 30.632 125.862 30.536 126.086 30.344C126.326 30.152 126.446 29.856 126.446 29.456C126.446 29.04 126.326 28.736 126.086 28.544C125.862 28.336 125.51 28.232 125.03 28.232H122.966V30.632ZM125.39 36.728C125.87 36.728 126.222 36.64 126.446 36.464C126.686 36.272 126.806 35.968 126.806 35.552C126.806 34.736 126.334 34.328 125.39 34.328H122.966V36.728H125.39ZM144.94 38.432H139.276L138.436 41H132.844L139.06 24.008H145.204L151.396 41H145.78L144.94 38.432ZM143.644 34.424L142.108 29.696L140.572 34.424H143.644ZM168.902 41H163.574L157.934 32.456V41H152.606V24.008H157.934L163.574 32.696V24.008H168.902V41ZM181.581 41L176.637 33.632V41H171.309V24.008H176.637V31.16L181.509 24.008H187.533L181.677 32.144L187.917 41H181.581Z" fill="#E0E1DD"/>
<g clip-path="url(#clip0_59_19)">
<path d="M45.3796 1.1419C46.2062 0.948224 47.0691 0.933495 47.9027 1.09883C48.7362 1.26416 49.5187 1.60522 50.1905 2.0961C50.8623 2.58698 51.406 3.21478 51.7801 3.93184C52.1542 4.64891 52.349 5.43638 52.3496 6.23449V10.5075H54.2193C55.7068 10.5075 57.1335 11.061 58.1853 12.0463C59.2372 13.0315 59.8281 14.3678 59.8281 15.7612V47.2835C59.8281 48.6768 59.2372 50.0131 58.1853 50.9984C57.1335 51.9837 55.7068 52.5372 54.2193 52.5372H5.60889C4.12132 52.5372 2.69468 51.9837 1.64281 50.9984C0.590935 50.0131 3.6679e-07 48.6768 3.6679e-07 47.2835V15.7612C-0.000521479 14.4088 0.555812 13.1082 1.5532 12.1303C2.5506 11.1523 3.9122 10.5723 5.35462 10.511L45.3796 1.1419ZM20.7978 10.5075H48.6104V6.23449C48.6097 5.96878 48.5445 5.70669 48.4197 5.46807C48.2949 5.22945 48.1138 5.02056 47.8901 4.85721C47.6663 4.69387 47.4058 4.58036 47.1283 4.52528C46.8508 4.4702 46.5635 4.47499 46.2883 4.5393L20.7978 10.5075ZM5.60889 14.01C5.11303 14.01 4.63748 14.1945 4.28686 14.5229C3.93624 14.8513 3.73926 15.2968 3.73926 15.7612V47.2835C3.73926 47.7479 3.93624 48.1934 4.28686 48.5218C4.63748 48.8502 5.11303 49.0347 5.60889 49.0347H54.2193C54.7151 49.0347 55.1907 48.8502 55.5413 48.5218C55.8919 48.1934 56.0889 47.7479 56.0889 47.2835V15.7612C56.0889 15.2968 55.8919 14.8513 55.5413 14.5229C55.1907 14.1945 54.7151 14.01 54.2193 14.01H5.60889Z" fill="#E0E1DD"/>
<path d="M30.2658 23.9518V40.9438H24.9618V32.4718L22.3458 40.9438H17.7858L15.1698 32.4718V40.9438H9.84185V23.9518H16.3698L20.1138 34.1518L23.7618 23.9518H30.2658ZM44.046 32.2318C45.07 32.4718 45.862 32.9678 46.422 33.7198C46.998 34.4558 47.286 35.3118 47.286 36.2878C47.286 37.7758 46.79 38.9278 45.798 39.7438C44.822 40.5438 43.414 40.9438 41.574 40.9438H32.67V23.9518H41.334C43.062 23.9518 44.422 24.3278 45.414 25.0798C46.406 25.8318 46.902 26.9278 46.902 28.3678C46.902 29.3598 46.638 30.1998 46.11 30.8878C45.598 31.5598 44.91 32.0078 44.046 32.2318ZM37.998 30.5758H40.062C40.542 30.5758 40.894 30.4798 41.118 30.2878C41.358 30.0958 41.478 29.7998 41.478 29.3998C41.478 28.9838 41.358 28.6798 41.118 28.4878C40.894 28.2798 40.542 28.1758 40.062 28.1758H37.998V30.5758ZM40.422 36.6718C40.902 36.6718 41.254 36.5838 41.478 36.4078C41.718 36.2158 41.838 35.9118 41.838 35.4958C41.838 34.6798 41.366 34.2718 40.422 34.2718H37.998V36.6718H40.422Z" fill="#E0E1DD"/>
</g>
<defs>
<clipPath id="clip0_59_19">
<rect width="59.8281" height="56.0396" fill="white"/>
</clipPath>
</defs>
</svg>
