<svg width="244" height="96" viewBox="0 0 244 96" fill="none" xmlns="http://www.w3.org/2000/svg">
<path d="M133.634 12.928V37H126.12V24.998L122.414 37H115.954L112.248 24.998V37H104.7V12.928H113.948L119.252 27.378L124.42 12.928H133.634ZM160.16 12.928L151.524 29.69V37H143.976V29.69L135.34 12.928H143.976L147.818 21.462L151.66 12.928H160.16ZM120.816 75.658C122.267 75.998 123.389 76.7007 124.182 77.766C124.998 78.8087 125.406 80.0213 125.406 81.404C125.406 83.512 124.703 85.144 123.298 86.3C121.915 87.4333 119.921 88 117.314 88H104.7V63.928H116.974C119.422 63.928 121.349 64.4607 122.754 65.526C124.159 66.5913 124.862 68.144 124.862 70.184C124.862 71.5893 124.488 72.7793 123.74 73.754C123.015 74.706 122.04 75.3407 120.816 75.658ZM112.248 73.312H115.172C115.852 73.312 116.351 73.176 116.668 72.904C117.008 72.632 117.178 72.2127 117.178 71.646C117.178 71.0567 117.008 70.626 116.668 70.354C116.351 70.0593 115.852 69.912 115.172 69.912H112.248V73.312ZM115.682 81.948C116.362 81.948 116.861 81.8233 117.178 81.574C117.518 81.302 117.688 80.8713 117.688 80.282C117.688 79.126 117.019 78.548 115.682 78.548H112.248V81.948H115.682ZM143.378 84.362H135.354L134.164 88H126.242L135.048 63.928H143.752L152.524 88H144.568L143.378 84.362ZM141.542 78.684L139.366 71.986L137.19 78.684H141.542ZM177.325 88H169.777L161.787 75.896V88H154.239V63.928H161.787L169.777 76.236V63.928H177.325V88ZM195.287 88L188.283 77.562V88H180.735V63.928H188.283V74.06L195.185 63.928H203.719L195.423 75.454L204.263 88H195.287Z" fill="#1B263B"/>
<g clip-path="url(#clip0_1_67)">
<path d="M68.265 8.77409C69.5085 8.46646 70.8064 8.44306 72.0604 8.70568C73.3144 8.9683 74.4914 9.51003 75.502 10.2897C76.5127 11.0694 77.3304 12.0666 77.8932 13.2056C78.456 14.3446 78.749 15.5954 78.75 16.8632V23.6504H81.5625C83.8003 23.6504 85.9464 24.5296 87.5287 26.0946C89.1111 27.6596 90 29.7822 90 31.9954V82.0652C90 84.2785 89.1111 86.401 87.5287 87.966C85.9464 89.531 83.8003 90.4102 81.5625 90.4102H8.4375C6.19974 90.4102 4.05363 89.531 2.47129 87.966C0.888949 86.401 5.51765e-07 84.2785 5.51765e-07 82.0652V31.9954C-0.000784466 29.8471 0.836113 27.7813 2.3365 26.228C3.83688 24.6746 5.88516 23.7534 8.055 23.656L68.265 8.77409ZM31.2862 23.6504H73.125V16.8632C73.124 16.4411 73.026 16.0248 72.8382 15.6458C72.6505 15.2667 72.378 14.9349 72.0414 14.6755C71.7049 14.416 71.313 14.2357 70.8955 14.1482C70.4781 14.0608 70.0459 14.0684 69.6319 14.1705L31.2862 23.6504ZM8.4375 29.2137C7.69158 29.2137 6.97621 29.5068 6.44876 30.0285C5.92132 30.5501 5.625 31.2576 5.625 31.9954V82.0652C5.625 82.803 5.92132 83.5105 6.44876 84.0322C6.97621 84.5538 7.69158 84.8469 8.4375 84.8469H81.5625C82.3084 84.8469 83.0238 84.5538 83.5512 84.0322C84.0787 83.5105 84.375 82.803 84.375 82.0652V31.9954C84.375 31.2576 84.0787 30.5501 83.5512 30.0285C83.0238 29.5068 82.3084 29.2137 81.5625 29.2137H8.4375Z" fill="#1B263B"/>
<path d="M45.436 45.2093V70.6973H37.48V57.9893L33.556 70.6973H26.716L22.792 57.9893V70.6973H14.8V45.2093H24.592L30.208 60.5093L35.68 45.2093H45.436ZM66.1062 57.6293C67.6422 57.9893 68.8302 58.7333 69.6702 59.8613C70.5342 60.9653 70.9662 62.2493 70.9662 63.7133C70.9662 65.9453 70.2222 67.6733 68.7342 68.8973C67.2702 70.0973 65.1582 70.6973 62.3982 70.6973H49.0422V45.2093H62.0382C64.6302 45.2093 66.6702 45.7733 68.1582 46.9013C69.6462 48.0293 70.3902 49.6733 70.3902 51.8333C70.3902 53.3213 69.9942 54.5813 69.2022 55.6133C68.4342 56.6213 67.4022 57.2933 66.1062 57.6293ZM57.0342 55.1453H60.1302C60.8502 55.1453 61.3782 55.0013 61.7142 54.7133C62.0742 54.4253 62.2542 53.9813 62.2542 53.3813C62.2542 52.7573 62.0742 52.3013 61.7142 52.0133C61.3782 51.7013 60.8502 51.5453 60.1302 51.5453H57.0342V55.1453ZM60.6702 64.2893C61.3902 64.2893 61.9182 64.1573 62.2542 63.8933C62.6142 63.6053 62.7942 63.1493 62.7942 62.5253C62.7942 61.3013 62.0862 60.6893 60.6702 60.6893H57.0342V64.2893H60.6702Z" fill="#1B263B"/>
</g>
<defs>
<clipPath id="clip0_1_67">
<rect width="90" height="89.0131" fill="white" transform="translate(0 6.96045)"/>
</clipPath>
</defs>
</svg>
