<svg width="204" height="104" viewBox="0 0 204 104" fill="none" xmlns="http://www.w3.org/2000/svg">
<g clip-path="url(#clip0_479_2093)">
<path d="M62.9555 8.81361C64.1022 8.50602 65.2993 8.48263 66.4557 8.74521C67.6121 9.00779 68.6976 9.54943 69.6296 10.329C70.5617 11.1086 71.3158 12.1057 71.8349 13.2445C72.3539 14.3833 72.6241 15.634 72.625 16.9015V23.6877H75.2188C77.2825 23.6877 79.2617 24.5668 80.7209 26.1316C82.1802 27.6963 83 29.8186 83 32.0315V82.094C83 84.3069 82.1802 86.4291 80.7209 87.9939C79.2617 89.5587 77.2825 90.4377 75.2188 90.4377H7.78125C5.71753 90.4377 3.73834 89.5587 2.27908 87.9939C0.819808 86.4291 5.0885e-07 84.3069 5.0885e-07 82.094V32.0315C-0.000723452 29.8835 0.771082 27.818 2.15477 26.2649C3.53846 24.7118 5.42743 23.7907 7.4285 23.6933L62.9555 8.81361ZM28.8529 23.6877H67.4375V16.9015C67.4366 16.4795 67.3462 16.0632 67.173 15.6843C66.9999 15.3053 66.7486 14.9736 66.4382 14.7141C66.1278 14.4547 65.7664 14.2745 65.3814 14.187C64.9964 14.0995 64.5979 14.1071 64.2161 14.2092L28.8529 23.6877ZM7.78125 29.2502C7.09335 29.2502 6.43361 29.5433 5.94719 30.0648C5.46077 30.5864 5.1875 31.2938 5.1875 32.0315V82.094C5.1875 82.8316 5.46077 83.539 5.94719 84.0606C6.43361 84.5822 7.09335 84.8752 7.78125 84.8752H75.2188C75.9067 84.8752 76.5664 84.5822 77.0528 84.0606C77.5392 83.539 77.8125 82.8316 77.8125 82.094V32.0315C77.8125 31.2938 77.5392 30.5864 77.0528 30.0648C76.5664 29.5433 75.9067 29.2502 75.2188 29.2502H7.78125Z" fill="#212529"/>
<path d="M44.4249 45.2454V70.7334H36.4689V58.0254L32.5449 70.7334H25.7049L21.7809 58.0254V70.7334H13.7889V45.2454H23.5809L29.1969 60.5454L34.6689 45.2454H44.4249ZM65.0951 57.6654C66.6311 58.0254 67.8191 58.7694 68.6591 59.8974C69.5231 61.0014 69.9551 62.2854 69.9551 63.7494C69.9551 65.9814 69.2111 67.7094 67.7231 68.9334C66.2591 70.1334 64.1471 70.7334 61.3871 70.7334H48.0311V45.2454H61.0271C63.6191 45.2454 65.6591 45.8094 67.1471 46.9374C68.6351 48.0654 69.3791 49.7094 69.3791 51.8694C69.3791 53.3574 68.9831 54.6174 68.1911 55.6494C67.4231 56.6574 66.3911 57.3294 65.0951 57.6654ZM56.0231 55.1814H59.1191C59.8391 55.1814 60.3671 55.0374 60.7031 54.7494C61.0631 54.4614 61.2431 54.0174 61.2431 53.4174C61.2431 52.7934 61.0631 52.3374 60.7031 52.0494C60.3671 51.7374 59.8391 51.5814 59.1191 51.5814H56.0231V55.1814ZM59.6591 64.3254C60.3791 64.3254 60.9071 64.1934 61.2431 63.9294C61.6031 63.6414 61.7831 63.1854 61.7831 62.5614C61.7831 61.3374 61.0751 60.7254 59.6591 60.7254H56.0231V64.3254H59.6591Z" fill="#212529"/>
</g>
<path d="M125.634 12.928V37H118.12V24.998L114.414 37H107.954L104.248 24.998V37H96.7V12.928H105.948L111.252 27.378L116.42 12.928H125.634ZM152.16 12.928L143.524 29.69V37H135.976V29.69L127.34 12.928H135.976L139.818 21.462L143.66 12.928H152.16ZM112.816 75.658C114.267 75.998 115.389 76.7007 116.182 77.766C116.998 78.8087 117.406 80.0213 117.406 81.404C117.406 83.512 116.703 85.144 115.298 86.3C113.915 87.4333 111.921 88 109.314 88H96.7V63.928H108.974C111.422 63.928 113.349 64.4607 114.754 65.526C116.159 66.5913 116.862 68.144 116.862 70.184C116.862 71.5893 116.488 72.7793 115.74 73.754C115.015 74.706 114.04 75.3407 112.816 75.658ZM104.248 73.312H107.172C107.852 73.312 108.351 73.176 108.668 72.904C109.008 72.632 109.178 72.2127 109.178 71.646C109.178 71.0567 109.008 70.626 108.668 70.354C108.351 70.0593 107.852 69.912 107.172 69.912H104.248V73.312ZM107.682 81.948C108.362 81.948 108.861 81.8233 109.178 81.574C109.518 81.302 109.688 80.8713 109.688 80.282C109.688 79.126 109.019 78.548 107.682 78.548H104.248V81.948H107.682ZM135.378 84.362H127.354L126.164 88H118.242L127.048 63.928H135.752L144.524 88H136.568L135.378 84.362ZM133.542 78.684L131.366 71.986L129.19 78.684H133.542ZM169.325 88H161.777L153.787 75.896V88H146.239V63.928H153.787L161.777 76.236V63.928H169.325V88ZM187.287 88L180.283 77.562V88H172.735V63.928H180.283V74.06L187.185 63.928H195.719L187.423 75.454L196.263 88H187.287Z" fill="#212529"/>
<defs>
<clipPath id="clip0_479_2093">
<rect width="83" height="89" fill="white" transform="translate(0 7)"/>
</clipPath>
</defs>
</svg>
