<svg width="50" height="50" viewBox="0 0 50 50" fill="none" xmlns="http://www.w3.org/2000/svg">
<rect width="50" height="50" rx="8" fill="#1B263B"/>
<g clip-path="url(#clip0_21_10)">
<path d="M32 23H33C33.2652 23 33.5196 23.1054 33.7071 23.2929C33.8946 23.4804 34 23.7348 34 24V34C34 34.2652 33.8946 34.5196 33.7071 34.7071C33.5196 34.8946 33.2652 35 33 35H17C16.7348 35 16.4804 34.8946 16.2929 34.7071C16.1054 34.5196 16 34.2652 16 34V24C16 23.7348 16.1054 23.4804 16.2929 23.2929C16.4804 23.1054 16.7348 23 17 23H18V22C18 21.0807 18.1811 20.1705 18.5328 19.3212C18.8846 18.4719 19.4002 17.7003 20.0503 17.0503C20.7003 16.4002 21.4719 15.8846 22.3212 15.5328C23.1705 15.1811 24.0807 15 25 15C25.9193 15 26.8295 15.1811 27.6788 15.5328C28.5281 15.8846 29.2997 16.4002 29.9497 17.0503C30.5998 17.7003 31.1154 18.4719 31.4672 19.3212C31.8189 20.1705 32 21.0807 32 22V23ZM18 25V33H32V25H18ZM24 27H26V31H24V27ZM30 23V22C30 20.6739 29.4732 19.4021 28.5355 18.4645C27.5979 17.5268 26.3261 17 25 17C23.6739 17 22.4021 17.5268 21.4645 18.4645C20.5268 19.4021 20 20.6739 20 22V23H30Z" fill="white"/>
</g>
<defs>
<clipPath id="clip0_21_10">
<rect width="24" height="24" fill="white" transform="translate(13 13)"/>
</clipPath>
</defs>
</svg>
