<svg width="50" height="50" viewBox="0 0 50 50" fill="none" xmlns="http://www.w3.org/2000/svg">
<rect width="50" height="50" rx="8" fill="#1B263B"/>
<path d="M25 25C26.1935 25 27.3381 24.5259 28.182 23.682C29.0259 22.8381 29.5 21.6935 29.5 20.5C29.5 19.3065 29.0259 18.1619 28.182 17.318C27.3381 16.4741 26.1935 16 25 16C23.8065 16 22.6619 16.4741 21.818 17.318C20.9741 18.1619 20.5 19.3065 20.5 20.5C20.5 21.6935 20.9741 22.8381 21.818 23.682C22.6619 24.5259 23.8065 25 25 25ZM28 20.5C28 21.2956 27.6839 22.0587 27.1213 22.6213C26.5587 23.1839 25.7956 23.5 25 23.5C24.2044 23.5 23.4413 23.1839 22.8787 22.6213C22.3161 22.0587 22 21.2956 22 20.5C22 19.7044 22.3161 18.9413 22.8787 18.3787C23.4413 17.8161 24.2044 17.5 25 17.5C25.7956 17.5 26.5587 17.8161 27.1213 18.3787C27.6839 18.9413 28 19.7044 28 20.5ZM34 32.5C34 34 32.5 34 32.5 34H17.5C17.5 34 16 34 16 32.5C16 31 17.5 26.5 25 26.5C32.5 26.5 34 31 34 32.5ZM32.5 32.494C32.4985 32.125 32.269 31.015 31.252 29.998C30.274 29.02 28.4335 28 25 28C21.565 28 19.726 29.02 18.748 29.998C17.731 31.015 17.503 32.125 17.5 32.494H32.5Z" fill="white"/>
</svg>
