<svg width="50" height="50" viewBox="0 0 50 50" fill="none" xmlns="http://www.w3.org/2000/svg">
<rect width="50" height="50" rx="8" fill="#1B263B"/>
<path d="M20.1112 16.6603C20.0447 16.5654 19.9609 16.4873 19.8652 16.4311C19.7696 16.375 19.6642 16.3421 19.5562 16.3346C19.4482 16.3272 19.34 16.3453 19.2388 16.3879C19.1377 16.4305 19.0458 16.4965 18.9693 16.5816L17.8061 17.8753C17.2627 18.4803 17.0625 19.3365 17.2999 20.0877C18.285 23.1972 19.8876 26.0202 21.9887 28.3475C24.0833 30.6821 26.6241 32.4627 29.4225 33.5574C30.0986 33.8212 30.8692 33.5987 31.4137 32.9949L32.5769 31.7025C32.6534 31.6175 32.7129 31.5154 32.7512 31.403C32.7895 31.2905 32.8059 31.1703 32.7992 31.0503C32.7925 30.9303 32.7628 30.8133 32.7123 30.707C32.6618 30.6007 32.5914 30.5075 32.506 30.4337L29.9107 28.1913C29.8195 28.1126 29.7133 28.0581 29.6003 28.0316C29.4872 28.0052 29.3703 28.0077 29.2582 28.0388L26.7946 28.7225C26.4657 28.8139 26.1212 28.809 25.7945 28.7085C25.4679 28.6079 25.1702 28.4151 24.9305 28.1488L22.1676 25.0776C21.9277 24.8114 21.754 24.4807 21.6633 24.1178C21.5726 23.7548 21.5681 23.3719 21.6501 23.0064L22.2666 20.269C22.2946 20.1445 22.2968 20.0145 22.273 19.889C22.2493 19.7634 22.2001 19.6454 22.1293 19.544L20.1112 16.6603ZM18.12 15.6391C18.3168 15.4203 18.5533 15.2505 18.8138 15.1411C19.0742 15.0316 19.3526 14.985 19.6305 15.0042C19.9085 15.0235 20.1795 15.1082 20.4257 15.2528C20.6718 15.3974 20.8875 15.5985 21.0584 15.8428L23.0766 18.7253C23.4467 19.254 23.5772 19.9427 23.4309 20.5927L22.8156 23.3302C22.7838 23.4719 22.7855 23.6205 22.8206 23.7613C22.8556 23.9021 22.9229 24.0305 23.0158 24.1339L25.7798 27.2051C25.873 27.3085 25.9887 27.3834 26.1157 27.4224C26.2427 27.4614 26.3766 27.4631 26.5043 27.4276L28.9669 26.7438C29.2556 26.6636 29.5569 26.6574 29.848 26.7256C30.1392 26.7938 30.4126 26.9347 30.6476 27.1376L33.2417 29.38C34.1743 30.1862 34.2598 31.7175 33.4251 32.6437L32.2619 33.9362C31.4294 34.8611 30.1852 35.2674 29.0254 34.8136C26.0568 33.6531 23.3615 31.7648 21.1394 29.2888C18.9111 26.8201 17.2117 23.8257 16.167 20.5277C15.7598 19.2403 16.1254 17.8565 16.9579 16.9316L18.1211 15.6391H18.12Z" fill="white"/>
</svg>
