<svg width="25" height="25" viewBox="0 0 25 25" fill="none" xmlns="http://www.w3.org/2000/svg">
<path d="M10.1562 3.125C9.94905 3.125 9.75034 3.20731 9.60382 3.35382C9.45731 3.50034 9.375 3.69905 9.375 3.90625C9.375 4.11345 9.45731 4.31216 9.60382 4.45868C9.75034 4.60519 9.94905 4.6875 10.1562 4.6875H14.8438C15.051 4.6875 15.2497 4.60519 15.3962 4.45868C15.5427 4.31216 15.625 4.11345 15.625 3.90625C15.625 3.69905 15.5427 3.50034 15.3962 3.35382C15.2497 3.20731 15.051 3.125 14.8438 3.125H10.1562ZM17.1875 12.5C17.1875 13.7432 16.6936 14.9355 15.8146 15.8146C14.9355 16.6936 13.7432 17.1875 12.5 17.1875C11.2568 17.1875 10.0645 16.6936 9.18544 15.8146C8.30636 14.9355 7.8125 13.7432 7.8125 12.5C7.8125 11.2568 8.30636 10.0645 9.18544 9.18544C10.0645 8.30636 11.2568 7.8125 12.5 7.8125C13.7432 7.8125 14.9355 8.30636 15.8146 9.18544C16.6936 10.0645 17.1875 11.2568 17.1875 12.5Z" fill="#555555"/>
<path d="M7.03125 0C5.99525 0 5.00168 0.41155 4.26911 1.14411C3.53655 1.87668 3.125 2.87025 3.125 3.90625V21.875C3.125 22.7038 3.45424 23.4987 4.04029 24.0847C4.62634 24.6708 5.4212 25 6.25 25H18.75C19.5788 25 20.3737 24.6708 20.9597 24.0847C21.5458 23.4987 21.875 22.7038 21.875 21.875V3.90625C21.875 2.87025 21.4634 1.87668 20.7309 1.14411C19.9983 0.41155 19.0048 0 17.9688 0H7.03125ZM4.6875 3.90625C4.6875 3.28465 4.93443 2.68851 5.37397 2.24897C5.81351 1.80943 6.40965 1.5625 7.03125 1.5625H17.9688C18.5904 1.5625 19.1865 1.80943 19.626 2.24897C20.0656 2.68851 20.3125 3.28465 20.3125 3.90625V20.7734C19.9377 20.4736 19.5311 20.2158 19.1 20.0047C17.8 19.3547 15.7234 18.75 12.5 18.75C9.27656 18.75 7.2 19.3547 5.9 20.0047C5.46894 20.2158 5.06234 20.4736 4.6875 20.7734V3.90625Z" fill="#555555"/>
</svg>
