<svg width="36" height="36" viewBox="0 0 36 36" fill="none" xmlns="http://www.w3.org/2000/svg">
<g clip-path="url(#clip0_109_1769)">
<path d="M14.4706 4.4525C14.1754 4.4525 13.8923 4.56978 13.6835 4.77853C13.4748 4.98728 13.3575 5.27041 13.3575 5.56562C13.3575 5.86084 13.4748 6.14397 13.6835 6.35272C13.8923 6.56147 14.1754 6.67875 14.4706 6.67875H21.1494C21.4446 6.67875 21.7277 6.56147 21.9365 6.35272C22.1452 6.14397 22.2625 5.86084 22.2625 5.56562C22.2625 5.27041 22.1452 4.98728 21.9365 4.77853C21.7277 4.56978 21.4446 4.4525 21.1494 4.4525H14.4706ZM24.4888 17.81C24.4888 19.5813 23.7851 21.2801 22.5326 22.5326C21.2801 23.7851 19.5813 24.4887 17.81 24.4887C16.0387 24.4887 14.3399 23.7851 13.0874 22.5326C11.8349 21.2801 11.1313 19.5813 11.1313 17.81C11.1313 16.0387 11.8349 14.3399 13.0874 13.0874C14.3399 11.8349 16.0387 11.1312 17.81 11.1312C19.5813 11.1312 21.2801 11.8349 22.5326 13.0874C23.7851 14.3399 24.4888 16.0387 24.4888 17.81Z" fill="#555555"/>
<path d="M10.0181 0C8.54204 0 7.12641 0.586377 6.08265 1.63013C5.03889 2.67389 4.45251 4.08953 4.45251 5.56562V31.1675C4.45251 32.3484 4.92162 33.4809 5.75662 34.3159C6.59163 35.1509 7.72414 35.62 8.90501 35.62H26.715C27.8959 35.62 29.0284 35.1509 29.8634 34.3159C30.6984 33.4809 31.1675 32.3484 31.1675 31.1675V5.56562C31.1675 4.08953 30.5811 2.67389 29.5374 1.63013C28.4936 0.586377 27.078 0 25.6019 0H10.0181ZM6.67876 5.56562C6.67876 4.67997 7.03059 3.83058 7.65684 3.20433C8.2831 2.57808 9.13248 2.22625 10.0181 2.22625H25.6019C26.4875 2.22625 27.3369 2.57808 27.9632 3.20433C28.5894 3.83058 28.9413 4.67997 28.9413 5.56562V29.598C28.4072 29.1708 27.8279 28.8035 27.2137 28.5027C25.3615 27.5766 22.4028 26.715 17.81 26.715C13.2173 26.715 10.2586 27.5766 8.40633 28.5027C7.79215 28.8035 7.21283 29.1708 6.67876 29.598V5.56562Z" fill="#555555"/>
</g>
<defs>
<clipPath id="clip0_109_1769">
<rect width="35.62" height="35.62" fill="white"/>
</clipPath>
</defs>
</svg>
